<svg width="212" height="212" viewBox="0 0 212 212" fill="none" xmlns="http://www.w3.org/2000/svg">
<g clip-path="url(#clip0_1_2)">
<mask id="mask0_1_2" style="mask-type:luminance" maskUnits="userSpaceOnUse" x="-40" y="-10" width="287" height="248">
<path d="M247 -10H-40V238H247V-10Z" fill="white"/>
</mask>
<g mask="url(#mask0_1_2)">
<path d="M0 0H212V212H0V0Z" fill="#181818"/>
<path d="M80.1571 37.0836C82.8716 36.9557 86.176 37.0357 88.9252 37.0376L104.438 37.0442L120.053 37.0684C122.398 37.0633 124.743 37 127.093 37.0006C129.69 36.9587 131.818 39.0445 130.438 41.6199C128.924 44.4461 127.235 47.189 125.642 49.9732L113.745 70.3692C111.27 74.5463 108.88 78.8086 106.443 83.0115C98.8192 96.1617 91.1795 109.305 83.5097 122.428C82.8716 123.52 82.0176 124.887 82.4866 126.169C82.8425 127.139 83.5004 127.904 84.5422 128.172C86.3685 128.406 88.8946 128.32 90.7245 128.319L103.009 128.304L155.511 128.303L169.705 128.3C173.1 128.275 176.493 128.193 179.888 128.257C182.342 128.302 183.225 128.751 184 131.1C183.419 133.842 178.26 141.905 176.612 144.74L166.582 162.016C165.147 164.433 163.733 166.863 162.342 169.305C161.686 170.442 159.701 174.294 158.561 174.561C155.799 175.208 152.147 174.95 149.221 174.947L134.392 174.936L117.13 174.939C113.908 174.95 110.683 175.012 107.463 174.955C105.599 174.922 104.845 174.721 103.845 173.1C101.912 169.968 100.111 166.752 98.2703 163.566L86.2476 142.927C85.3329 141.355 79.8152 131.252 78.5617 130.608C77.7015 130.167 70.7456 130.31 69.1741 130.311L42.2584 130.313C40.0565 130.308 29.9675 130.546 28.8369 129.997C28.053 129.616 27.4569 128.938 27.1824 128.114C26.8159 127.043 27.0392 126.684 27.5196 125.705C28.2455 124.228 29.1659 122.783 30.0001 121.355L34.2006 114.114C39.1569 105.489 44.1573 96.8899 49.2019 88.3158L69.586 53.1499L74.8474 44.1139C75.8462 42.3811 76.8402 40.5891 77.9007 38.8945C78.5399 37.8731 79.0432 37.4754 80.1571 37.0836Z" fill="white"/>
</g>
</g>
<defs>
<clipPath id="clip0_1_2">
<rect width="212" height="212" rx="53" fill="white"/>
</clipPath>
</defs>
</svg>
